<svg width="88" height="88" viewBox="0 0 88 88" fill="none" xmlns="http://www.w3.org/2000/svg">
<rect x="1" y="1" width="86" height="86" rx="43" fill="white"/>
<path d="M44.6984 36.4685C44.6984 36.47 44.6999 36.47 44.6984 36.4685L44.8854 36.3186C47.3664 34.353 49.8217 33.0197 52.1785 32.3659C52.2042 32.3602 54.7066 31.7592 55.132 33.0868C55.5117 34.2702 52.6624 36.5727 50.9609 37.9474C50.554 38.2757 50.1729 38.5869 49.8288 38.8781L49.6133 39.0523C49.6204 39.0509 49.6261 39.048 49.6319 39.0452C49.6319 39.0452 50.6696 38.6883 52.0557 38.8182C52.0672 38.8196 52.08 38.8225 52.0914 38.8253L52.3041 38.6169C54.6424 36.7169 57.0548 34.6099 56.4339 32.6685C55.7744 30.6101 53.2334 30.6758 51.8245 31.044C49.1337 31.7906 46.36 33.3252 43.5821 35.6063L43.4736 35.702C43.4808 35.7048 43.4893 35.7077 43.4965 35.7105C43.4993 35.712 44.2102 35.9689 44.6984 36.4685Z" fill="#0C3463"/>
<path d="M71.1822 45.0949C70.8039 44.718 70.3314 44.4525 69.8346 44.2627C70.447 43.8144 70.8796 43.1749 70.8796 42.2756C70.8796 40.0387 68.2473 39.442 66.6927 39.442H54.5918H53.8096C53.8096 39.442 54.8374 40.0915 55.2556 40.8067L55.5811 40.8096H66.6927C66.7213 40.8096 69.5149 40.8581 69.5149 42.2756C69.5149 43.5718 67.2252 43.7873 66.7769 43.8173C66.7341 43.8187 66.6999 43.8201 66.6742 43.823H56.5989H56.0536C56.0536 43.823 55.9637 44.5596 55.7024 45.1905H56.2592H66.7113C66.7198 45.1905 66.7284 45.1891 66.737 45.1891H66.7384C67.4179 45.1463 69.3736 45.2205 70.2215 46.067C70.527 46.3711 70.6612 46.7594 70.6312 47.2518C70.5512 48.5651 67.7177 48.6936 66.6942 48.6337H59.4653H59.1284C59.1284 48.6337 59.3083 49.5515 59.284 49.9983L59.648 49.9998L66.6528 49.9983C66.6713 49.9998 66.8512 50.0098 67.1338 50.0098C67.3065 50.0098 67.525 50.0026 67.7605 49.9898C67.7733 49.9926 67.7848 50.0012 67.799 50.0026C67.9746 50.0269 69.5149 50.2867 69.5149 51.8298C69.5149 52.2866 69.3978 52.6235 69.1552 52.8633C68.7112 53.3016 67.9718 53.3001 67.9475 53.2973H58.7073H57.9293L57.6895 53.5114C57.9165 54.0053 58.0164 54.6648 58.0164 54.6648H58.586H62.7585C63.1154 54.7519 64.9469 55.2701 64.9469 56.7761C64.9469 58.2878 62.3017 58.3149 62.276 58.3149H57.1328H56.5946C56.5946 58.3149 56.4033 58.9616 56.0893 59.6825H56.8644H62.276C63.6721 59.6825 66.313 59.0744 66.313 56.7761C66.313 55.8596 65.9533 55.1759 65.4736 54.6648H67.9275C67.9361 54.6648 67.9503 54.6648 67.9703 54.6648C68.2244 54.6648 69.3122 54.6177 70.1016 53.8483C70.6183 53.3458 70.8796 52.6663 70.8796 51.8313C70.8796 50.822 70.487 50.1026 69.966 49.6029C71.5334 49.0633 71.9473 48.1012 71.993 47.3332C72.0473 46.451 71.766 45.6773 71.1822 45.0949Z" fill="#0C3463"/>
<path d="M59.1268 48.6323C58.5972 46.6995 56.7443 45.8244 55.5809 45.4618C55.6223 45.3748 55.6623 45.282 55.7008 45.1892C55.9606 44.5582 56.052 43.8216 56.052 43.8216C56.1533 42.8852 55.9792 41.8289 55.2583 40.8096C55.2583 40.8082 55.2569 40.8082 55.2569 40.8068C54.8386 40.0916 53.8108 39.4421 53.8108 39.4421C53.2541 39.1023 52.6702 38.9096 52.0935 38.8268C52.0821 38.8254 52.0693 38.8211 52.0579 38.8197C50.6718 38.6898 49.634 39.0467 49.634 39.0467C49.6268 39.0481 49.6211 39.0509 49.6154 39.0538C49.4798 39.0952 49.347 39.1395 49.2228 39.188C48.9159 38.5713 48.4848 38.2387 48.1322 38.0603C47.3243 37.6506 46.4192 37.7576 45.8283 37.9061C45.5142 37.3337 45.1374 36.8555 44.702 36.4715C44.702 36.4715 44.702 36.47 44.7005 36.47C44.2123 35.969 43.5 35.7135 43.5 35.7135C43.4929 35.7106 43.4843 35.7078 43.4772 35.7049C43.3573 35.6549 43.2345 35.6064 43.1075 35.5664C40.9891 34.8884 38.6737 35.8277 37.6901 36.3144L37.2747 36.5143C37.2847 36.5157 37.2933 36.5157 37.3033 36.5171C37.3033 36.5171 37.703 36.5614 38.1755 36.7598C37.6187 36.9882 37.2747 37.1852 37.2747 37.1852C37.2747 37.1852 40.9234 38.5999 37.2747 41.8003C33.626 45.0008 33.5532 45.7459 33.5532 45.7459H50.5247C50.5247 45.7459 53.1299 45.6945 53.2784 48.1384C53.2784 48.1384 53.5011 49.3132 51.1942 50.0627C51.1942 50.0627 54.6031 51.0676 54.3947 52.8905C54.1877 54.7134 51.641 54.9004 51.641 54.9004C51.641 54.9004 53.5553 56.1352 53.4268 57.804C53.2983 59.4713 52.3105 59.6283 47.1002 59.684L48.9616 61.6725C48.9616 61.6725 49.1429 61.741 49.4484 61.8195C49.4755 61.9837 49.4984 62.1721 49.5098 62.3919L49.7881 62.4619C50.3292 62.5675 50.8473 62.626 51.3355 62.626C52.469 62.626 53.4597 62.3463 54.3004 61.7867C55.1612 61.2128 55.7222 60.432 56.092 59.684C56.4074 58.9645 56.5973 58.3164 56.5973 58.3164C56.6587 58.0795 56.7058 57.8639 56.7329 57.7026C57.3581 57.3058 57.7693 56.769 57.9577 56.1052C58.0976 55.6156 58.0905 55.1174 58.0177 54.6663C58.0177 54.6663 57.9177 54.0083 57.6908 53.5129L57.9306 53.2988C58.5344 52.7021 59.2596 51.6429 59.2824 50.0013V49.9998C59.3067 49.5502 59.1268 48.6323 59.1268 48.6323Z" fill="#436A81"/>
<path d="M49.1165 60.8887C48.988 60.6646 48.8381 60.4633 48.6711 60.2849H51.1264C51.135 60.2849 51.1492 60.2849 51.1692 60.2849C51.4233 60.2849 52.5096 60.2378 53.3005 59.4684C53.8172 58.9659 54.0785 58.2864 54.0785 57.4499C54.0785 56.4407 53.6859 55.7212 53.1649 55.2216C54.7322 54.682 55.1462 53.7198 55.1919 52.9519C55.2461 52.0697 54.9649 51.2945 54.3811 50.7135C54.0028 50.3367 53.5289 50.0712 53.0335 49.8813C53.6459 49.4331 54.0785 48.7936 54.0785 47.8942C54.0785 47.3489 53.9157 46.9078 53.6559 46.5424C53.6359 46.5138 53.6202 46.4824 53.5988 46.4553L53.3933 46.2212C53.3818 46.2098 53.369 46.2012 53.3576 46.1912C52.4654 45.3347 50.938 45.0621 49.8916 45.0621H34.5189C35.1099 44.4611 35.8279 43.8901 36.5288 43.332C38.376 41.8616 40.2874 40.3428 39.6308 38.29C39.4923 37.8561 39.2653 37.5235 38.987 37.2622C38.9798 37.2551 38.9727 37.2465 38.9656 37.2394C38.2575 36.6184 37.3011 36.5157 37.3011 36.5157C37.2911 36.5142 37.2825 36.5142 37.2725 36.5128C36.4731 36.4043 35.6381 36.5057 35.0214 36.667C30.1822 38.0103 25.2202 41.8117 20.2711 47.9642C20.1797 48.077 20.1041 48.1726 20.0427 48.2483H16.6838C16.3069 48.2483 16 48.5537 16 48.932C16 49.3089 16.3055 49.6158 16.6838 49.6158H20.4581L20.5637 49.5801C20.7878 49.5059 20.8506 49.4274 21.3374 48.8207C26.1024 42.8951 30.8303 39.2493 35.3754 37.9874C35.4011 37.9817 37.9035 37.3807 38.3289 38.7083C38.6729 39.7846 37.5566 40.7696 35.678 42.2642C34.6288 43.0993 33.5425 43.9629 32.7845 44.9807C32.5804 45.2548 32.549 45.6174 32.7031 45.9243C32.8602 46.2369 33.1728 46.4311 33.5211 46.4311H49.8888C49.9173 46.4311 52.7095 46.471 52.7095 47.8971C52.7095 49.2004 50.3912 49.4102 49.963 49.4388C49.923 49.4402 49.893 49.4416 49.8702 49.4431H37.3882C37.0113 49.4431 36.7044 49.7486 36.7044 50.1268C36.7044 50.5051 37.0099 50.8106 37.3882 50.8106H49.9059C49.9144 50.8106 49.923 50.8092 49.9316 50.8092H49.933C50.6139 50.7635 52.5682 50.8406 53.4161 51.6871C53.7216 51.9926 53.8558 52.3794 53.8258 52.8719C53.7458 54.1866 50.9165 54.3151 49.8888 54.2537H37.5523C37.1755 54.2537 36.8686 54.5592 36.8686 54.9375C36.8686 55.3158 37.174 55.6213 37.5523 55.6213L49.8474 55.6198C49.8659 55.6213 50.0458 55.6313 50.3284 55.6313C50.5011 55.6313 50.721 55.6241 50.9565 55.6113C50.9694 55.6141 50.9808 55.6227 50.9936 55.6241C51.1692 55.6484 52.7095 55.9082 52.7095 57.4513C52.7095 57.9081 52.5924 58.2464 52.3498 58.4848C51.9058 58.9231 51.1607 58.9231 51.1435 58.9188H37.5523C37.1755 58.9188 36.8686 59.2243 36.8686 59.6026C36.8686 59.9809 37.174 60.2863 37.5523 60.2863H45.9546C46.3114 60.3734 48.1429 60.8916 48.1429 62.3962C48.1429 63.9079 45.4978 63.935 45.4721 63.935H30.3934C30.3378 63.9421 24.3494 64.0892 20.8935 59.4327L20.6879 59.1558H16.6838C16.3069 59.1558 16 59.4612 16 59.8395C16 60.2178 16.3055 60.5233 16.6838 60.5233H20.0098C23.5914 65.0684 29.1401 65.304 30.2364 65.304C30.3378 65.304 30.4006 65.3026 30.4206 65.3011H45.4735C46.8682 65.3011 49.5048 64.6944 49.5105 62.4019C49.5105 62.3976 49.509 62.3947 49.509 62.3905C49.4548 61.4126 49.2064 61.0101 49.1365 60.9144C49.125 60.8987 49.1165 60.8887 49.1165 60.8887Z" fill="#0C3463"/>
<path d="M38.024 34.326C40.2452 34.326 42.0524 32.5187 42.0524 30.2976C42.0524 28.0764 40.2452 26.2692 38.024 26.2692C35.8028 26.2692 33.9956 28.0764 33.9956 30.2976C33.9956 32.5187 35.8028 34.326 38.024 34.326Z" fill="#436A81"/>
<path d="M44.8437 28.6502C46.3469 28.6502 47.5688 27.4283 47.5688 25.9251C47.5688 24.4219 46.3469 23.2 44.8437 23.2C43.3406 23.2 42.1187 24.4219 42.1187 25.9251C42.1187 27.4283 43.3406 28.6502 44.8437 28.6502Z" fill="#436A81"/>
<path d="M35.148 31.4851C35.0109 31.4851 34.8839 31.3966 34.8425 31.2581C34.7483 30.9469 34.7012 30.6229 34.7012 30.296C34.7012 28.4631 36.1915 26.9728 38.0244 26.9728C38.2499 26.9728 38.4755 26.9956 38.6939 27.0399C38.8666 27.0756 38.9779 27.244 38.9423 27.4167C38.9066 27.5895 38.7381 27.7022 38.5654 27.6651C38.3884 27.6294 38.2071 27.6109 38.0244 27.6109C36.5441 27.6109 35.3407 28.8142 35.3407 30.2946C35.3407 30.5601 35.3792 30.8213 35.4549 31.0725C35.5063 31.241 35.4106 31.4194 35.2422 31.4708C35.2094 31.4808 35.1794 31.4851 35.148 31.4851Z" fill="#436A81"/>
<path d="M43.0844 26.372C42.9074 26.372 42.7646 26.2292 42.7646 26.0522C42.7646 25.003 43.5069 24.078 44.5305 23.8524C44.7032 23.8139 44.8731 23.9238 44.9116 24.0951C44.9501 24.2678 44.8402 24.4377 44.6689 24.4762C43.9366 24.6376 43.4056 25.2999 43.4056 26.0522C43.4027 26.2292 43.26 26.372 43.0844 26.372Z" fill="#436A81"/>
<path d="M54.3348 41.8487C54.232 41.8487 54.1321 41.8002 54.0693 41.7074C53.4069 40.7267 52.3063 40.1414 51.1244 40.1414C49.9967 40.1414 48.9246 40.6853 48.2565 41.5975C48.1523 41.7402 47.9525 41.7702 47.8097 41.666C47.667 41.5618 47.637 41.3619 47.7412 41.2192C48.5278 40.1443 49.7925 39.5019 51.1244 39.5019C52.519 39.5019 53.8166 40.1928 54.5989 41.3491C54.6974 41.4947 54.6589 41.6945 54.5133 41.793C54.459 41.8301 54.3962 41.8487 54.3348 41.8487Z" fill="#436A81"/>
<path d="M44.9179 40.8994C44.7409 40.8994 44.5981 40.7567 44.5981 40.5797C44.5981 39.3977 45.5589 38.437 46.7408 38.437C47.2933 38.437 47.8186 38.6469 48.2183 39.028C48.3453 39.1493 48.351 39.352 48.2297 39.4791C48.1084 39.6076 47.9057 39.6118 47.7786 39.4905C47.4974 39.2236 47.1291 39.0751 46.7408 39.0751C45.9114 39.0751 45.2362 39.7503 45.2362 40.5797C45.2377 40.7567 45.0949 40.8994 44.9179 40.8994Z" fill="#436A81"/>
<rect x="1" y="1" width="86" height="86" rx="43" stroke="#436A81" stroke-width="2"/>
</svg>
