<svg width="49" height="48" viewBox="0 0 49 48" fill="none" xmlns="http://www.w3.org/2000/svg">
<path d="M30.25 22V11.66C30.25 10.6 29.83 9.58 29.07 8.84L25.65 5.42C25.465 5.23459 25.2452 5.0875 25.0032 4.98714C24.7613 4.88677 24.5019 4.83511 24.24 4.83511C23.9781 4.83511 23.7187 4.88677 23.4768 4.98714C23.2348 5.0875 23.015 5.23459 22.83 5.42L19.43 8.82C18.67 9.58 18.25 10.6 18.25 11.66V14H10.25C8.05 14 6.25 15.8 6.25 18V38C6.25 40.2 8.05 42 10.25 42H38.25C40.45 42 42.25 40.2 42.25 38V26C42.25 23.8 40.45 22 38.25 22H30.25ZM14.25 38H10.25V34H14.25V38ZM14.25 30H10.25V26H14.25V30ZM14.25 22H10.25V18H14.25V22ZM26.25 38H22.25V34H26.25V38ZM26.25 30H22.25V26H26.25V30ZM26.25 22H22.25V18H26.25V22ZM26.25 14H22.25V10H26.25V14ZM38.25 38H34.25V34H38.25V38ZM38.25 30H34.25V26H38.25V30Z" fill="#436A81"/>
</svg>
