<svg width="89" height="88" viewBox="0 0 89 88" fill="none" xmlns="http://www.w3.org/2000/svg">
<rect x="1.5" y="1" width="86" height="86" rx="43" fill="white"/>
<path d="M22.588 34.8991C18.0072 34.8991 14.2808 38.6255 14.2808 43.2063V49.7727C14.2808 50.2047 14.6312 50.5551 15.0632 50.5551C15.4952 50.5551 15.8456 50.2047 15.8456 49.7727V43.2063C15.8456 39.4895 18.8696 36.4639 22.588 36.4639C26.3064 36.4639 29.3288 39.4879 29.3288 43.2063V49.7727C29.3288 50.2047 29.6792 50.5551 30.1112 50.5551C30.5432 50.5551 30.8936 50.2047 30.8936 49.7727V43.2063C30.8952 38.6255 27.1688 34.8991 22.588 34.8991Z" fill="#0C3463"/>
<path d="M27.6504 49.6528C27.2184 49.6528 26.868 50.0032 26.868 50.4352V60.0352C26.868 62.2432 25.0712 64.04 22.8616 64.04C20.652 64.04 18.8568 62.2432 18.8568 60.0352V49.6528C18.8568 49.2208 18.5064 48.8704 18.0744 48.8704C17.6424 48.8704 17.292 49.2208 17.292 49.6528V60.0352C17.292 63.1072 19.7912 65.6064 22.8632 65.6064C25.9352 65.6064 28.4344 63.1072 28.4344 60.0352V50.4352C28.4328 50.0032 28.0824 49.6528 27.6504 49.6528Z" fill="#0C3463"/>
<path d="M22.588 33.592C25.7736 33.592 28.364 31 28.364 27.816C28.364 24.632 25.772 22.04 22.588 22.04C19.4024 22.04 16.812 24.632 16.812 27.816C16.812 31 19.4024 33.592 22.588 33.592ZM22.588 23.6048C24.9096 23.6048 26.7992 25.4928 26.7992 27.816C26.7992 30.1392 24.9112 32.0272 22.588 32.0272C20.2648 32.0272 18.3768 30.1392 18.3768 27.816C18.3768 25.4928 20.2664 23.6048 22.588 23.6048Z" fill="#0C3463"/>
<path d="M66.4122 35.2545C61.8314 35.2545 58.105 38.9809 58.105 43.5617V50.1281C58.105 50.5601 58.4554 50.9105 58.8874 50.9105C59.3194 50.9105 59.6698 50.5601 59.6698 50.1281V43.5617C59.6698 39.8449 62.6938 36.8209 66.4122 36.8209C70.1306 36.8209 73.153 39.8449 73.153 43.5617V50.1281C73.153 50.5601 73.5034 50.9105 73.9354 50.9105C74.3674 50.9105 74.7178 50.5601 74.7178 50.1281V43.5617C74.7194 38.9809 70.993 35.2545 66.4122 35.2545Z" fill="#0C3463"/>
<path d="M71.4741 50.0064C71.0421 50.0064 70.6917 50.3568 70.6917 50.7888V60.3888C70.6917 62.5968 68.8949 64.3952 66.6853 64.3952C64.4773 64.3952 62.6805 62.5984 62.6805 60.3888V50.0064C62.6805 49.5744 62.3301 49.224 61.8981 49.224C61.4661 49.224 61.1157 49.5744 61.1157 50.0064V60.3888C61.1157 63.4608 63.6149 65.96 66.6869 65.96C69.7589 65.96 72.2581 63.4608 72.2581 60.3888V50.7888C72.2565 50.3584 71.9061 50.0064 71.4741 50.0064Z" fill="#0C3463"/>
<path d="M66.4117 33.9471C69.5973 33.9471 72.1877 31.3551 72.1877 28.1711C72.1877 24.9855 69.5957 22.3951 66.4117 22.3951C63.2261 22.3951 60.6357 24.9871 60.6357 28.1711C60.6357 31.3551 63.2261 33.9471 66.4117 33.9471ZM66.4117 23.9599C68.7333 23.9599 70.6229 25.8479 70.6229 28.1711C70.6229 30.4927 68.7349 32.3823 66.4117 32.3823C64.0885 32.3823 62.2005 30.4927 62.2005 28.1711C62.2005 25.8479 64.0901 23.9599 66.4117 23.9599Z" fill="#0C3463"/>
<path d="M51.4952 42.2496C51.1656 41.8112 50.668 41.6736 50.2264 41.9008C49.7848 42.128 49.4984 42.6656 49.4984 43.2736V44.2192H39.5032V43.2736C39.5032 42.6656 39.2184 42.1264 38.7752 41.9008C38.332 41.6736 37.8344 41.8128 37.5064 42.2496L33.692 47.3248C33.2568 47.9056 33.2664 48.8368 33.716 49.4L37.5576 54.2272C37.8856 54.64 38.3752 54.7632 38.8024 54.5456C39.2296 54.3264 39.516 53.8064 39.5304 53.2192L39.548 52.4944H49.4536L49.4712 53.2192C49.4856 53.8064 49.772 54.328 50.1992 54.5456C50.3384 54.616 50.4856 54.6512 50.6296 54.6512C50.9288 54.6512 51.2232 54.504 51.444 54.2256L55.2856 49.3984C55.7352 48.8352 55.7448 47.9024 55.3096 47.3216L51.4952 42.2496Z" fill="#436A81"/>
<path d="M41.1096 49.8304H42.7832C42.9496 49.8304 43.0776 49.864 43.164 49.9328C43.252 50.0016 43.2952 50.0944 43.2952 50.2112C43.2952 50.3152 43.26 50.4048 43.1912 50.4768C43.1224 50.5488 43.0168 50.5856 42.876 50.5856H40.5176C40.3576 50.5856 40.2328 50.5408 40.1432 50.4528C40.0536 50.3648 40.0088 50.2608 40.0088 50.1408C40.0088 50.064 40.0376 49.9616 40.0952 49.8352C40.1528 49.7088 40.2152 49.608 40.284 49.536C40.5688 49.2416 40.8248 48.9888 41.0536 48.7776C41.2824 48.5664 41.4456 48.4288 41.5432 48.3632C41.7176 48.24 41.8648 48.1152 41.98 47.9904C42.0968 47.8656 42.1848 47.7376 42.2456 47.6064C42.3064 47.4752 42.3368 47.3456 42.3368 47.2208C42.3368 47.0848 42.3048 46.9616 42.2392 46.8544C42.1736 46.7472 42.0856 46.6624 41.9736 46.6032C41.8616 46.544 41.7384 46.5136 41.6072 46.5136C41.3272 46.5136 41.1064 46.6368 40.9464 46.8816C40.9256 46.9136 40.8888 47.0016 40.8392 47.144C40.7896 47.288 40.732 47.3968 40.6696 47.4736C40.6072 47.5504 40.5144 47.5888 40.3928 47.5888C40.2856 47.5888 40.1976 47.5536 40.1272 47.4832C40.0568 47.4128 40.0216 47.3168 40.0216 47.1952C40.0216 47.048 40.0552 46.8944 40.1208 46.7344C40.1864 46.5744 40.2856 46.4288 40.4168 46.2992C40.548 46.1696 40.7144 46.064 40.9176 45.984C41.1192 45.904 41.356 45.864 41.628 45.864C41.9544 45.864 42.2344 45.9152 42.4648 46.0176C42.6136 46.0864 42.7464 46.1808 42.8584 46.2992C42.972 46.4192 43.06 46.5568 43.1224 46.7136C43.1848 46.8704 43.2168 47.0336 43.2168 47.2032C43.2168 47.4688 43.1512 47.7088 43.02 47.9264C42.8888 48.144 42.7544 48.3136 42.6184 48.4368C42.4808 48.56 42.252 48.752 41.9304 49.016C41.6088 49.2784 41.388 49.4832 41.268 49.6288C41.2168 49.68 41.164 49.7488 41.1096 49.8304Z" fill="#0C3463"/>
<path d="M46.9081 48.9522V50.1153C46.9081 50.2993 46.8665 50.4369 46.7833 50.5281C46.7001 50.6193 46.5897 50.6657 46.4537 50.6657C46.3209 50.6657 46.2137 50.6193 46.1321 50.5281C46.0505 50.4369 46.0089 50.2977 46.0089 50.1153V48.7218C46.0089 48.501 46.0009 48.3313 45.9865 48.2081C45.9721 48.0865 45.9305 47.9857 45.8649 47.9089C45.7993 47.8305 45.6937 47.7922 45.5513 47.7922C45.2649 47.7922 45.0761 47.8898 44.9849 48.0865C44.8937 48.2833 44.8489 48.5649 44.8489 48.9329V50.1153C44.8489 50.2977 44.8073 50.4337 44.7257 50.5265C44.6441 50.6193 44.5353 50.6657 44.4009 50.6657C44.2681 50.6657 44.1593 50.6193 44.0761 50.5265C43.9913 50.4337 43.9497 50.2961 43.9497 50.1153V47.6113C43.9497 47.4466 43.9881 47.3218 44.0633 47.237C44.1385 47.1522 44.2393 47.1089 44.3625 47.1089C44.4825 47.1089 44.5817 47.1489 44.6617 47.2289C44.7417 47.3089 44.7817 47.4193 44.7817 47.5601V47.6433C44.9337 47.4625 45.0953 47.3281 45.2697 47.2433C45.4425 47.1585 45.6345 47.1153 45.8473 47.1153C46.0681 47.1153 46.2569 47.1586 46.4153 47.2466C46.5737 47.3346 46.7033 47.4673 46.8057 47.6433C46.9529 47.4641 47.1113 47.3313 47.2793 47.2449C47.4473 47.1585 47.6345 47.1153 47.8409 47.1153C48.0809 47.1153 48.2857 47.1617 48.4601 47.2561C48.6329 47.3505 48.7625 47.4849 48.8473 47.6593C48.9225 47.8177 48.9593 48.0658 48.9593 48.4065V50.1153C48.9593 50.2993 48.9177 50.4369 48.8345 50.5281C48.7513 50.6193 48.6409 50.6657 48.5049 50.6657C48.3721 50.6657 48.2633 50.6193 48.1801 50.5265C48.0953 50.4337 48.0537 50.2961 48.0537 50.1153V48.6433C48.0537 48.4561 48.0457 48.3042 48.0297 48.1922C48.0137 48.0786 47.9705 47.9842 47.9001 47.9074C47.8297 47.8306 47.7225 47.7922 47.5801 47.7922C47.4649 47.7922 47.3545 47.8257 47.2521 47.8945C47.1481 47.9633 47.0681 48.0545 47.0105 48.1697C46.9417 48.3169 46.9081 48.5778 46.9081 48.9522Z" fill="#0C3463"/>
<rect x="1.5" y="1" width="86" height="86" rx="43" stroke="#436A81" stroke-width="2"/>
</svg>
