<svg width="89" height="88" viewBox="0 0 89 88" fill="none" xmlns="http://www.w3.org/2000/svg">
<rect x="1.5" y="1" width="86" height="86" rx="43" fill="white"/>
<path d="M52.6103 30.5664C52.7495 30.328 52.8375 30.0528 52.8375 29.7536V25.7472C52.8375 24.848 52.1079 24.1184 51.2087 24.1184H48.2951V20.6176H50.8919V16.0656H53.4103C53.8455 16.0656 54.1975 15.7136 54.1975 15.2784V14.4768C54.1975 14.0416 53.8455 13.6896 53.4103 13.6896H30.1319C29.6967 13.6896 29.3447 14.0416 29.3447 14.4768V15.2784C29.3447 15.7136 29.6967 16.0656 30.1319 16.0656H42.8407V20.616H45.4375V24.1168H42.5239C41.6247 24.1168 40.8951 24.8464 40.8951 25.7456V29.752C40.8951 30.152 41.0423 30.5104 41.2759 30.7904C35.0503 32.9664 30.6167 38.4048 30.6167 44.7696V72.52C30.6167 73.7904 31.6503 74.8256 32.9223 74.8256H61.5495C62.8727 74.8256 63.9495 73.7488 63.9495 72.4256V44.7696C63.9495 38.1744 59.1927 32.5728 52.6103 30.5664ZM61.9463 72.4256C61.9463 72.6448 61.7687 72.8224 61.5495 72.8224H32.9239C32.7575 72.8224 32.6215 72.6864 32.6215 72.52V44.7696C32.6215 37.6016 39.1991 31.7696 47.2839 31.7696C55.3687 31.7696 61.9463 37.6016 61.9463 44.7696V72.4256Z" fill="#0C3463"/>
<path d="M34.8569 70.6736H59.7097V49.496H34.8569V70.6736ZM57.2361 60.0848C57.2361 61.272 56.2697 62.2384 55.0825 62.2384C53.8953 62.2384 52.9289 61.272 52.9289 60.0848C52.9289 58.8976 53.8953 57.9312 55.0825 57.9312C56.2697 57.9312 57.2361 58.8976 57.2361 60.0848ZM50.8921 51.7952C52.5673 51.7952 53.9305 53.1584 53.9305 54.8336C53.9305 56.5088 52.5673 57.872 50.8921 57.872C49.2169 57.872 47.8537 56.5088 47.8537 54.8336C47.8537 53.1584 49.2169 51.7952 50.8921 51.7952Z" fill="#436A81"/>
<path d="M55.0827 61.2351C55.7179 61.2351 56.2347 60.7183 56.2347 60.0831C56.2347 59.4479 55.7179 58.9311 55.0827 58.9311C54.4475 58.9311 53.9307 59.4479 53.9307 60.0831C53.9307 60.7199 54.4475 61.2351 55.0827 61.2351Z" fill="white"/>
<path d="M50.8923 56.8705C52.0155 56.8705 52.9291 55.9569 52.9291 54.8337C52.9291 53.7105 52.0155 52.7969 50.8923 52.7969C49.7691 52.7969 48.8555 53.7105 48.8555 54.8337C48.8555 55.9569 49.7691 56.8705 50.8923 56.8705Z" fill="white"/>
<path d="M29.9145 31.7697C32.6201 31.7697 34.8217 29.5681 34.8217 26.8625C34.8217 24.6289 31.1065 17.6673 29.9145 17.6673C28.7225 17.6673 25.0073 24.6273 25.0073 26.8625C25.0073 29.5681 27.2089 31.7697 29.9145 31.7697Z" fill="#436A81"/>
<path d="M28.9227 30.3185C28.8587 30.3185 28.7931 30.3041 28.7323 30.2753C27.6091 29.7409 26.8859 28.9569 26.5835 27.9489C26.0027 26.0113 27.2139 23.9697 27.2667 23.8833C27.3931 23.6737 27.6667 23.6065 27.8763 23.7329C28.0859 23.8593 28.1531 24.1329 28.0267 24.3425C28.0091 24.3729 26.9675 26.1457 27.4347 27.6977C27.6635 28.4545 28.2283 29.0529 29.1131 29.4737C29.3339 29.5793 29.4283 29.8449 29.3227 30.0657C29.2475 30.2241 29.0891 30.3185 28.9227 30.3185Z" fill="white"/>
<path d="M39.0374 68.9873C37.8022 68.9873 36.7974 67.9825 36.7974 66.7473C36.7974 65.5121 37.8022 64.5073 39.0374 64.5073C40.2726 64.5073 41.2774 65.5121 41.2774 66.7473C41.2774 67.9825 40.2726 68.9873 39.0374 68.9873ZM39.0374 65.3601C38.2726 65.3601 37.6502 65.9825 37.6502 66.7473C37.6502 67.5121 38.2726 68.1345 39.0374 68.1345C39.8022 68.1345 40.4246 67.5121 40.4246 66.7473C40.4246 65.9825 39.8022 65.3601 39.0374 65.3601Z" fill="white"/>
<path d="M39.8728 62.5887C40.3341 62.5887 40.708 62.2148 40.708 61.7535C40.708 61.2923 40.3341 60.9183 39.8728 60.9183C39.4115 60.9183 39.0376 61.2923 39.0376 61.7535C39.0376 62.2148 39.4115 62.5887 39.8728 62.5887Z" fill="white"/>
<path d="M42.1549 63.8834C42.3855 63.8834 42.5725 63.6964 42.5725 63.4658C42.5725 63.2351 42.3855 63.0482 42.1549 63.0482C41.9243 63.0482 41.7373 63.2351 41.7373 63.4658C41.7373 63.6964 41.9243 63.8834 42.1549 63.8834Z" fill="white"/>
<path d="M55.5001 52.2129C55.7307 52.2129 55.9177 52.026 55.9177 51.7953C55.9177 51.5647 55.7307 51.3777 55.5001 51.3777C55.2695 51.3777 55.0825 51.5647 55.0825 51.7953C55.0825 52.026 55.2695 52.2129 55.5001 52.2129Z" fill="white"/>
<path d="M56.235 64.7184C56.4656 64.7184 56.6526 64.5315 56.6526 64.3008C56.6526 64.0702 56.4656 63.8832 56.235 63.8832C56.0043 63.8832 55.8174 64.0702 55.8174 64.3008C55.8174 64.5315 56.0043 64.7184 56.235 64.7184Z" fill="white"/>
<path d="M54.6652 66.2863C54.8958 66.2863 55.0828 66.0993 55.0828 65.8687C55.0828 65.6381 54.8958 65.4511 54.6652 65.4511C54.4345 65.4511 54.2476 65.6381 54.2476 65.8687C54.2476 66.0993 54.4345 66.2863 54.6652 66.2863Z" fill="white"/>
<path d="M49.2731 60.5025C49.5037 60.5025 49.6907 60.3155 49.6907 60.0849C49.6907 59.8543 49.5037 59.6673 49.2731 59.6673C49.0424 59.6673 48.8555 59.8543 48.8555 60.0849C48.8555 60.3155 49.0424 60.5025 49.2731 60.5025Z" fill="white"/>
<rect x="1.5" y="1" width="86" height="86" rx="43" stroke="#436A81" stroke-width="2"/>
</svg>
