<svg width="89" height="88" viewBox="0 0 89 88" fill="none" xmlns="http://www.w3.org/2000/svg">
<rect x="1.5" y="1" width="86" height="86" rx="43" fill="white"/>
<path d="M22.8604 44.0288C22.87 43.128 22.9052 42.2288 22.966 41.3312C27.3964 38.9232 45.3532 29.12 52.0428 24.9392C52.0428 24.9392 59.5756 36.3344 65.31 41.088C65.382 42.0752 65.4236 43.0672 65.4332 44.0592C65.4332 44.0592 66.7564 42.4544 67.3484 43.736C67.0812 25.872 58.1148 13.9344 44.8652 13.9344H43.43C30.3292 13.9344 21.4204 25.6096 20.9644 43.1392C21.5948 42.1472 22.8604 44.0288 22.8604 44.0288Z" fill="#0C3463"/>
<path d="M71.18 49.2753C70.9176 45.6177 68.9016 44.1521 67.348 43.7361C67.5544 44.1825 67.3608 44.8177 66.8504 45.5889C67.6264 45.7905 69.0664 46.5505 69.2712 49.4113C69.4008 51.2305 69.012 52.6657 68.116 53.6753C66.7592 55.2033 64.6328 55.3217 64.6152 55.3217L63.94 55.3473L63.7384 55.9921C62.8904 58.7057 61.6232 61.2465 60.0808 63.5089C59.4936 65.9985 58.5736 68.3233 57.1304 69.8737C60.7032 66.6689 63.676 62.2257 65.3752 57.1521C66.3512 56.9857 68.1704 56.4817 69.5304 54.9633C70.7928 53.5537 71.348 51.6385 71.18 49.2753Z" fill="#0C3463"/>
<path d="M24.5561 55.9919L24.3545 55.3503L23.6825 55.3215C23.4921 55.3135 19.0249 55.0575 19.0249 49.3424C19.0249 46.2704 20.8313 45.6655 21.5897 45.5455C21.5897 45.5455 20.7689 44.6399 20.7833 43.7599C19.1305 44.2047 17.1113 45.6943 17.1113 49.3439C17.1113 55.3823 21.2441 56.8095 22.9145 57.1391C24.7081 62.5199 27.8297 67.1263 31.5881 70.3391C29.4697 68.1215 28.3049 63.7775 28.3049 63.7775C26.7433 61.4719 25.4489 58.8495 24.5561 55.9919Z" fill="#0C3463"/>
<path d="M60.9913 51.1184C63.8057 48.9664 65.8953 47.032 66.8505 45.5888C67.3625 44.816 67.5545 44.1824 67.348 43.736C66.7577 42.4544 65.4328 44.0592 65.4328 44.0592C63.924 46.2688 61.6745 48.0112 60.3705 48.9072L60.0633 48.8704C44.1145 46.9664 28.1625 48.8512 28.0025 48.8704L27.9081 48.8816C26.5945 47.976 24.3609 46.2384 22.8617 44.0272C22.8617 44.0272 21.5961 42.1456 20.9641 43.1376C20.9625 43.1408 20.9609 43.1408 20.9593 43.144C20.8377 43.3392 20.7881 43.5472 20.7849 43.7584C20.7705 44.6384 21.5913 45.544 21.5913 45.544C23.3657 47.9616 25.7849 49.768 27.0953 50.6448C26.9657 52.7952 26.8281 58.3264 28.3049 63.7744C28.3049 63.7744 29.4713 68.1184 31.5881 70.336C35.1577 73.3872 39.3033 75.1792 43.4297 75.1792H44.8649C49.0985 75.1792 53.4345 73.1872 57.1289 69.872C58.5721 68.32 59.4937 65.9952 60.0793 63.5072C61.4361 57.7536 60.9913 51.1184 60.9913 51.1184Z" fill="#436A81"/>
<path d="M54.8972 55.4224C45.2796 54.7616 33.5484 55.416 33.43 55.4224C33.166 55.4368 32.9644 55.664 32.9788 55.9264C32.9932 56.1904 33.2284 56.3824 33.4828 56.3776C33.6012 56.3712 45.2732 55.7184 54.83 56.3776C54.8412 56.3776 54.8524 56.3792 54.8636 56.3792C55.1132 56.3792 55.3228 56.1856 55.3404 55.9328C55.3596 55.6688 55.1612 55.4416 54.8972 55.4224Z" fill="white"/>
<path d="M52.0203 60.9407H35.7147C35.4507 60.9407 35.2363 61.1551 35.2363 61.4191C35.2363 61.6831 35.4507 61.8975 35.7147 61.8975H52.0203C52.2843 61.8975 52.4987 61.6831 52.4987 61.4191C52.4987 61.1551 52.2843 60.9407 52.0203 60.9407Z" fill="white"/>
<path d="M51.6475 63.7855C43.5915 64.4431 36.3323 63.7935 36.2603 63.7855C35.9979 63.7647 35.7643 63.9551 35.7403 64.2175C35.7163 64.4799 35.9099 64.7135 36.1723 64.7375C36.2203 64.7423 39.4827 65.0351 44.0587 65.0351C46.3627 65.0351 48.9995 64.9615 51.7243 64.7391C51.9883 64.7183 52.1835 64.4863 52.1627 64.2239C52.1419 63.9599 51.9115 63.7663 51.6475 63.7855Z" fill="white"/>
<path d="M36.7273 44.4688C36.3817 45.7776 35.4761 46.712 34.4137 46.712C33.0537 46.712 31.9497 45.1792 31.9497 43.288C31.9497 41.3968 33.0521 39.864 34.4137 39.864C35.5257 39.864 36.4649 40.8864 36.7721 42.2928L34.3609 43.288L36.7273 44.4688Z" fill="#0C3463"/>
<path d="M56.3255 44.4688C55.9799 45.7776 55.0743 46.712 54.0119 46.712C52.6519 46.712 51.5479 45.1792 51.5479 43.288C51.5479 41.3968 52.6503 39.864 54.0119 39.864C55.1239 39.864 56.0631 40.8864 56.3703 42.2928L53.9591 43.288L56.3255 44.4688Z" fill="#0C3463"/>
<rect x="1.5" y="1" width="86" height="86" rx="43" stroke="#436A81" stroke-width="2"/>
</svg>
