<svg width="32" height="32" viewBox="0 0 32 32" fill="none" xmlns="http://www.w3.org/2000/svg">
<circle cx="16" cy="16" r="16" fill="#436A81"/>
<path d="M22.7998 11.6999C20.3998 7.99988 15.4998 6.89988 11.6998 9.19988C7.99978 11.4999 6.79978 16.4999 9.19978 20.1999L9.39978 20.4999L8.59978 23.4999L11.5998 22.6999L11.8998 22.8999C13.1998 23.5999 14.5998 23.9999 15.9998 23.9999C17.4998 23.9999 18.9998 23.5999 20.2998 22.7999C23.9998 20.3999 25.0998 15.4999 22.7998 11.6999ZM20.6998 19.3999C20.2998 19.9999 19.7998 20.3999 19.0998 20.4999C18.6998 20.4999 18.1998 20.6999 16.1998 19.8999C14.4998 19.0999 13.0998 17.7999 12.0998 16.2999C11.4998 15.5999 11.1998 14.6999 11.0998 13.7999C11.0998 12.9999 11.3998 12.2999 11.8998 11.7999C12.0998 11.5999 12.2998 11.4999 12.4998 11.4999H12.9998C13.1998 11.4999 13.3998 11.4999 13.4998 11.8999C13.6998 12.3999 14.1998 13.5999 14.1998 13.6999C14.2998 13.7999 14.2998 13.9999 14.1998 14.0999C14.2998 14.2999 14.1998 14.4999 14.0998 14.5999C13.9998 14.6999 13.8998 14.8999 13.7998 14.9999C13.5998 15.0999 13.4998 15.2999 13.5998 15.4999C13.9998 16.0999 14.4998 16.6999 14.9998 17.1999C15.5998 17.6999 16.1998 18.0999 16.8998 18.3999C17.0998 18.4999 17.2998 18.4999 17.3998 18.2999C17.4998 18.0999 17.9998 17.5999 18.1998 17.3999C18.3998 17.1999 18.4998 17.1999 18.6998 17.2999L20.2998 18.0999C20.4998 18.1999 20.6998 18.2999 20.7998 18.3999C20.8998 18.6999 20.8998 19.0999 20.6998 19.3999Z" fill="white"/>
</svg>
